<svg width="572" height="298" viewBox="0 0 572 298" fill="none" xmlns="http://www.w3.org/2000/svg">
<g clip-path="url(#clip0_63_49677)">
<path d="M187.687 177.598L169.557 164.136L142.643 161.432L138.636 167.96L133.2 166.153L130.495 156.081L122.439 155.535L125.802 145.967L119.063 145.309L112.352 150.702L107.658 143.95L111.693 132.533L129.865 129.83L133.2 139.243L137.921 138.585V129.83L150.699 112.347L166.839 103.578L187.687 94.2063L172.892 61.2166L166.153 65.237L160.815 50.4721L147.981 51.1305L144.646 77.3542L139.939 78.0266L120.422 57.1962L124.471 46.3957L144.646 42.3753V16.796L94.1938 22.2173L67.9798 6.72402L55.8326 18.1689L22.8654 0L4.70759 10.7584L11.4327 20.8585H4.02106L2.03155 28.2549L12.1052 29.5857L2.03155 37.6685L5.35208 49.1133L14.1088 51.1305L0 62.5754L22.1929 51.8029L34.2981 45.0649L53.829 57.1962L69.2968 83.4198V106.968L78.698 124.45L94.1938 148.657L113.024 155.395L121.108 159.429L130.495 171.532L137.094 170.51L129.865 182.319L135.876 206.511L148.667 217.942L133.2 280.49L138.622 293.952L154.047 298L144.646 287.9L157.424 263.708L184.997 240.145L187.043 229.387L200.507 227.342L213.957 199.787L190.419 188.342L187.687 177.598Z" fill="#231F20"/>
<path d="M509.078 182.333L507.621 193.764L497.954 190.234L499.733 184.07L489.141 183.201L475.41 195.963L460.867 201.258L464.398 221.038L463.067 225.002L468.377 228.07L489.981 222.733L498.346 227.594L502.325 225.395L504.959 233.393L515.957 236.489L523.929 231.628L528.343 207.87L516.42 195.963L509.078 182.333Z" fill="#231F20"/>
<path d="M455.571 171.294L467.046 173.48L472.342 157.188L469.232 154.526L453.82 164.234L455.571 171.294Z" fill="#231F20"/>
<path d="M522.164 183.187L518.185 174.81L500.097 166.013L490.836 166.882L502.745 179.223L509.568 179.685L512.441 177.024L522.164 183.187Z" fill="#231F20"/>
<path d="M512.455 66.8059H509.372L508.924 82.6634L500.994 99.4314L490.85 106.926L490.416 113.524L508.924 102.513L509.807 91.0404L515.971 85.325L511.152 81.3746L513.772 72.0871L512.455 66.8059Z" fill="#231F20"/>
<path d="M560.077 226.838L561.394 239.165L547.747 251.955L556.56 252.851L564.462 240.93L570.655 232.581L566.69 232.133L560.077 226.838Z" fill="#231F20"/>
<path d="M265.348 41.3106V54.1563L274.273 50.248L276.795 46.2976L267.142 27.7225L261.439 31.6869L261.79 36.6459L256.423 43.1177L256.059 49.8698H262.504L265.348 41.3106Z" fill="#231F20"/>
<path fill-rule="evenodd" clip-rule="evenodd" d="M319.429 98.0544L323.338 104.834L335.444 106.852L333.454 113.436L328.915 116.167L335.64 121.392L349.791 149.171L377.111 132.865L367.822 125.819L360.789 129.349L356.376 118.759L359.472 117.008L365.637 122.261L386.821 126.239L395.62 136.83L403.55 156.665L409.728 150.53V142.979L426.933 131.072L433.112 144.282L438.184 143.007L439.263 156.203L444.545 165.869L433.112 160.154L441.476 172.061L450.752 180.872L472.79 184.836L460.881 180.003L452.041 176.894L448.958 162.787L441.883 154.844L442.149 146.874L450.275 155.307L458.205 148.681L450.738 137.67L454.24 131.927L470.577 131.058L478.044 117.372L472.776 102.397L479.389 95.3788L484.251 101.991L486.03 110.354L491.747 107.272L489.561 98.0124L494.423 90.9662L502.353 89.6354L511.586 64.0561L503.67 58.3407L458 62.6973L410 69.5L362 82.7012L319.429 98.0544Z" fill="#231F20"/>
<path d="M574.662 35.8572L558.774 44.6825L546.893 47.3021L547.327 57.4581L535.852 71.5646L535.418 55.6931L550.396 37.6083L541.148 38.9391L529.239 48.6469L514.668 47.7503L503.67 58.3407L458 62.6973L410 69.5L362 82.7012L319.429 98.0544L316.571 96.6115L314.077 105.185L308.711 98.3766L309.076 92.6752L301.916 86.9738L297.629 84.8305L298.007 90.5459L306.946 96.5975L302.266 101.977L295.864 93.4036L291.226 88.0244L280.508 93.4036L273.012 105.185L261.593 103.406L260.879 89.1311L275.492 90.1817L270.882 82.7012L268.01 76.6356L279.079 73.0495L285.145 64.8686L290.147 64.4903L289.068 59.8536L292.277 55.567L294.785 62.6973L308.697 63.0475L312.606 53.0315L318 54.8386L316.193 48.0725L324.487 45.3969L321.909 42.3571L314.4 44.4724L311.766 38.0706L311.401 38.0285L311.612 37.5803L310.505 34.8626L313.517 32.7194L316.151 26.0094L313.349 25.5751L308.711 31.3045L304.774 39.8496L309.09 44.4724L304.774 55.9032L298.357 58.4107L294.785 46.9939L287.275 51.2664L283.716 49.1372L284.052 38.0706L290.497 33.0836L295.864 19.8737L309.426 12.4072L343.304 18.6269C382.393 14.5225 453.273 7 453.273 7L570.249 23.5159L574.662 35.8572Z" fill="#3C64B1"/>
<path d="M344.33 195.996L343.966 210.299L349.711 212.778L355.413 195.646L353.984 188.516L344.33 195.996Z" fill="#231F20"/>
<path d="M324.575 115.28L328.358 121.023L342.775 154.013L356.884 147.387L352.485 162.838L338.376 175.628L340.562 194.567L332.632 200.745L318.088 228.075L303.517 230.709L290.754 199.848L293.85 185.742L285.92 161.059L259.019 162.824L244 148.27L246.662 124.455L261.219 106.833L289.423 102L291.202 109.466L302.649 116.947L307.062 110.797L324.575 115.28Z" fill="#231F20"/>
<path d="M203.281 13.0558L193.347 10.3381L181.06 23.45L196.85 64.5505L204.318 66.3996L204.906 53.0356L209.964 49.9258L210.258 44.8547L215.47 35.0629L211.827 27.6525L203.281 13.0558Z" fill="#231F20"/>
</g>
<defs>
<clipPath id="clip0_63_49677">
<rect width="572" height="298" fill="white"/>
</clipPath>
</defs>
</svg>
