<svg width="572" height="298" viewBox="0 0 572 298" fill="none" xmlns="http://www.w3.org/2000/svg">
<g clip-path="url(#clip0_63_49677)">
<path d="M187.687 177.598L169.557 164.136L142.643 161.432L138.636 167.96L133.2 166.153L130.495 156.081L122.439 155.535L125.802 145.967L119.063 145.309L112.352 150.702L107.658 143.95L111.693 132.533L129.865 129.83L133.2 139.243L137.921 138.585V129.83L150.699 112.347L166.839 103.578L187.687 94.2063L172.892 61.2166L166.153 65.237L160.815 50.4721L147.981 51.1305L144.646 77.3542L139.939 78.0266L120.422 57.1962L124.471 46.3957L144.646 42.3753V16.796L94.1938 22.2173L67.9798 6.72402L55.8326 18.1689L22.8654 0L4.70759 10.7584L11.4327 20.8585H4.02106L2.03155 28.2549L12.1052 29.5857L2.03155 37.6685L5.35208 49.1133L14.1088 51.1305L0 62.5754L22.1929 51.8029L34.2981 45.0649L53.829 57.1962L69.2968 83.4198V106.968L78.698 124.45L94.1938 148.657L113.024 155.395L121.108 159.429L130.495 171.532L137.094 170.51L129.865 182.319L135.876 206.511L148.667 217.942L133.2 280.49L138.622 293.952L154.047 298L144.646 287.9L157.424 263.708L184.997 240.145L187.043 229.387L200.507 227.342L213.957 199.787L190.419 188.342L187.687 177.598Z" fill="#231F20"/>
<path d="M107.658 143.95L94.1938 148.657L78.698 124.45L69.2968 106.968V83.4198L53.829 57.1962L34.2981 45.0649L22.1929 51.8029L0 62.5754L14.1088 51.1305L5.35208 49.1133L2.03155 37.6685L12.1052 29.5857L2.03155 28.2549L4.02106 20.8585H11.4327L4.70759 10.7584L22.8654 0L55.8326 18.1689L67.9798 6.72402L94.1938 22.2173L144.646 16.796V42.3753L124.471 46.3957L120.422 57.1962L139.939 78.0266L144.646 77.3542L147.981 51.1305L160.815 50.4721L166.153 65.237L172.892 61.2166L187.687 94.2063L166.839 103.578L150.699 112.347L137.921 129.83V138.585L133.2 139.243L129.865 129.83L111.693 132.533L107.658 143.95Z" fill="#3C64B1"/>
<path d="M509.078 182.333L507.621 193.764L497.954 190.234L499.733 184.07L489.141 183.201L475.41 195.963L460.867 201.258L464.398 221.038L463.067 225.002L468.377 228.07L489.981 222.733L498.346 227.594L502.325 225.395L504.959 233.393L515.957 236.489L523.929 231.628L528.343 207.87L516.42 195.963L509.078 182.333Z" fill="#231F20"/>
<path d="M455.571 171.294L467.046 173.48L472.342 157.188L469.232 154.526L453.82 164.234L455.571 171.294Z" fill="#231F20"/>
<path d="M522.164 183.187L518.185 174.81L500.097 166.013L490.836 166.882L502.745 179.223L509.568 179.685L512.441 177.024L522.164 183.187Z" fill="#231F20"/>
<path d="M512.455 66.8059H509.372L508.924 82.6634L500.994 99.4314L490.85 106.926L490.416 113.524L508.924 102.513L509.807 91.0404L515.971 85.325L511.152 81.3746L513.772 72.0871L512.455 66.8059Z" fill="#231F20"/>
<path d="M560.077 226.838L561.394 239.165L547.747 251.955L556.56 252.851L564.462 240.93L570.655 232.581L566.69 232.133L560.077 226.838Z" fill="#231F20"/>
<path d="M265.348 41.3106V54.1563L274.273 50.248L276.795 46.2976L267.142 27.7225L261.439 31.6869L261.79 36.6459L256.423 43.1177L256.059 49.8698H262.504L265.348 41.3106Z" fill="#231F20"/>
<path fill-rule="evenodd" clip-rule="evenodd" d="M319.429 98.0544L323.338 104.834L335.444 106.852L333.454 113.436L328.915 116.167L335.64 121.392L349.791 149.171L377.111 132.865L367.822 125.819L360.789 129.349L356.376 118.759L359.472 117.008L365.637 122.261L386.821 126.239L395.62 136.83L403.55 156.665L409.728 150.53V142.979L426.933 131.072L433.112 144.282L438.184 143.007L439.263 156.203L444.545 165.869L433.112 160.154L441.476 172.061L450.752 180.872L472.79 184.836L460.881 180.003L452.041 176.894L448.958 162.787L441.883 154.844L442.149 146.874L450.275 155.307L458.205 148.681L450.738 137.67L454.24 131.927L470.577 131.058L478.044 117.372L472.776 102.397L479.389 95.3788L484.251 101.991L486.03 110.354L491.747 107.272L489.561 98.0124L494.423 90.9662L502.353 89.6354L511.586 64.0561L503.67 58.3407L458 62.6973L410 69.5L362 82.7012L319.429 98.0544Z" fill="#231F20"/>
<path d="M540.833 38.5515L529.075 48.1358L514.699 47.2513L514.48 47.2378L514.321 47.3902L503.449 57.8595L457.953 62.1995L457.941 62.2006L457.93 62.2022L409.93 69.0049L409.898 69.0094L409.867 69.0179L361.867 82.2191L361.849 82.2243L361.83 82.2309L319.462 97.511L316.797 96.1652L316.259 95.8939L316.091 96.4719L313.869 104.112L309.222 98.2174L309.575 92.7071L309.591 92.4466L309.387 92.284L302.228 86.5826L302.187 86.55L302.14 86.5265L297.852 84.3833L297.072 83.9933L297.13 84.8635L297.508 90.5789L297.524 90.8229L297.727 90.9599L306.198 96.6952L302.296 101.181L296.264 93.1044L296.254 93.0904L296.242 93.0771L291.605 87.6979L291.35 87.4027L291.002 87.5775L280.284 92.9567L280.16 93.0187L280.086 93.1352L272.766 104.64L262.072 102.974L261.406 89.6703L275.456 90.6804L276.43 90.7504L275.918 89.9194L271.323 82.4623L268.706 76.9359L279.233 73.5251L279.385 73.4758L279.48 73.3473L285.411 65.3499L290.185 64.9889L290.766 64.945L290.634 64.377L289.608 59.9669L292.116 56.6164L294.313 62.8632L294.427 63.1884L294.772 63.1971L308.685 63.5473L309.035 63.5561L309.163 63.2293L312.899 53.6569L317.842 55.3127L318.723 55.6081L318.483 54.7095L316.799 48.4025L324.641 45.8728L325.352 45.6434L324.869 45.0735L322.291 42.0337L322.083 41.7888L321.774 41.8758L314.693 43.8704L312.228 37.8803L312.132 37.6475L312.157 37.5944L312.075 37.3917L311.117 35.0406L313.807 33.1268L313.928 33.0405L313.982 32.9021L316.616 26.1921L316.845 25.6109L316.228 25.5153L313.425 25.081L313.141 25.0369L312.96 25.2605L308.323 30.9899L308.283 31.0385L308.257 31.0953L304.32 39.6404L304.18 39.9454L304.409 40.1908L308.512 44.5865L304.385 55.5185L298.675 57.75L295.262 46.8446L295.077 46.2525L294.537 46.5593L287.281 50.6876L284.225 48.8589L284.545 38.3216L290.803 33.479L290.91 33.3966L290.961 33.2718L296.26 20.2262L309.511 12.9312L343.213 19.1187L343.284 19.1317L343.356 19.1242C362.901 17.072 390.394 14.1652 413 11.7715C424.303 10.5747 434.385 9.5061 441.64 8.73673L450.204 7.82846L452.521 7.58269L453.122 7.51891L453.265 7.50373L569.88 23.9687L574.048 35.6261L558.595 44.21L546.785 46.8138L546.375 46.9042L546.393 47.3234L546.82 57.2899L536.315 70.2031L535.923 55.8672L550.781 37.9272L551.608 36.9287L550.324 37.1134L541.077 38.4442L540.94 38.4639L540.833 38.5515Z" fill="#231F20" stroke="#231F20"/>
<path d="M344.33 195.996L343.966 210.299L349.711 212.778L355.413 195.646L353.984 188.516L344.33 195.996Z" fill="#231F20"/>
<path d="M324.575 115.28L328.358 121.023L342.775 154.013L356.884 147.387L352.485 162.838L338.376 175.628L340.562 194.567L332.632 200.745L318.088 228.075L303.517 230.709L290.754 199.848L293.85 185.742L285.92 161.059L259.019 162.824L244 148.27L246.662 124.455L261.219 106.833L289.423 102L291.202 109.466L302.649 116.947L307.062 110.797L324.575 115.28Z" fill="#231F20"/>
<path d="M203.281 13.0558L193.347 10.3381L181.06 23.45L196.85 64.5505L204.318 66.3996L204.906 53.0356L209.964 49.9258L210.258 44.8547L215.47 35.0629L211.827 27.6525L203.281 13.0558Z" fill="#231F20"/>
</g>
<defs>
<clipPath id="clip0_63_49677">
<rect width="572" height="298" fill="white"/>
</clipPath>
</defs>
</svg>
